<svg xmlns="http://www.w3.org/2000/svg" viewBox="0 0 16 16" fill="currentColor">
  <path d="M2 2.5A2.5 2.5 0 0 1 4.5 0h7A2.5 2.5 0 0 1 14 2.5v11A2.5 2.5 0 0 1 11.5 16h-7A2.5 2.5 0 0 1 2 13.5v-11zM4.5 1A1.5 1.5 0 0 0 3 2.5v11A1.5 1.5 0 0 0 4.5 15h7A1.5 1.5 0 0 0 13 13.5v-11A1.5 1.5 0 0 0 11.5 1h-7z"/>
  <path d="M5 5h6a.5.5 0 0 1 .5.5v1a.5.5 0 0 1-.5.5H5a.5.5 0 0 1-.5-.5v-1A.5.5 0 0 1 5 5zm0 3h6a.5.5 0 0 1 .5.5v1a.5.5 0 0 1-.5.5H5a.5.5 0 0 1-.5-.5v-1A.5.5 0 0 1 5 8zm0 3h4a.5.5 0 0 1 .5.5v1a.5.5 0 0 1-.5.5H5a.5.5 0 0 1-.5-.5v-1A.5.5 0 0 1 5 11z"/>
</svg>
